<?xml version="1.0" encoding="utf-8"?>
<!-- Generator: Adobe Illustrator 23.1.0, SVG Export Plug-In . SVG Version: 6.00 Build 0)  -->
<svg version="1.1" id="레이어_1" xmlns="http://www.w3.org/2000/svg" xmlns:xlink="http://www.w3.org/1999/xlink" x="0px"
	 y="0px" viewBox="0 0 32 32" style="enable-background:new 0 0 32 32;" xml:space="preserve">
<style type="text/css">
	.st0{fill:#3487F7;}
	.st1{fill:#FFFFFF;}
</style>
<path class="st0" d="M28.59,32H3.41C1.53,32,0,30.47,0,28.59V3.41C0,1.53,1.53,0,3.41,0h25.19C30.47,0,32,1.53,32,3.41v25.19
	C32,30.47,30.47,32,28.59,32z"/>
<path class="st1" d="M23.01,13.75c0,4.91-3.79,8.67-8.63,8.67c-2.42,0-4.54-0.67-6.06-2.19v6.77c0,1.79-2.6,1.79-2.6,0
	c0,0,0-9.93,0-13.02c0-6.96,5.88-8.74,8.67-8.74C19.26,5.23,23.01,8.99,23.01,13.75z M20.45,13.75c0-3.39-2.68-5.99-6.06-5.99
	c-3.35,0-6.06,2.57-6.06,5.99c0,3.38,2.68,6.14,6.06,6.14C17.81,19.89,20.45,17.13,20.45,13.75z"/>
<path class="st1" d="M28.67,7.49h-2.39v2.46c0,0.79-1.24,0.79-1.24,0V7.49h-2.4c-0.86,0-0.86-1.17,0-1.17h2.4V3.9
	c0-0.82,1.24-0.82,1.24,0v2.42h2.39C29.55,6.32,29.55,7.49,28.67,7.49z"/>
</svg>
