<svg xmlns="http://www.w3.org/2000/svg" xmlns:xlink="http://www.w3.org/1999/xlink" viewBox="0 0 2000 2000"><defs><style>.cls-1{fill:none;}.cls-2{isolation:isolate;}.cls-3{clip-path:url(#clip-path);}.cls-4{fill:#e9ebf6;}.cls-5{fill:#276de6;}.cls-6{fill:#feb396;}.cls-7{fill:#fcac90;}.cls-8{fill:#fca686;}.cls-9{fill:#fff;opacity:0.15;}.cls-10{fill:#2c4482;}.cls-11{fill:#1f387a;}.cls-12{fill:#dbfbff;}.cls-13{fill:#0c166e;}.cls-14{fill:#94b8e3;}.cls-15{fill:#efd3bd;}.cls-16{fill:#d7dce0;}.cls-16,.cls-19,.cls-24,.cls-25,.cls-26{mix-blend-mode:multiply;}.cls-17{fill:#3d8dfe;}.cls-18{fill:#5eaefe;}.cls-20{fill:#a7a9ac;}.cls-21{fill:#fffffd;}.cls-22{fill:#f3f3f3;}.cls-23{fill:#6d6e72;}.cls-24{fill:#d3d8db;}.cls-25{fill:#dae5ed;}.cls-26{fill:#cee3f0;}.cls-27{fill:#ff5035;}.cls-28{fill:#fff5f6;}.cls-29{fill:#32d094;}.cls-30{fill:#fbca00;}.cls-31{fill:#5e96fe;}.cls-32{fill:#febfa0;}.cls-33{fill:#f5e0cd;}.cls-34{fill:#fbe0de;}</style><clipPath id="clip-path"><rect class="cls-1" width="2000" height="2000"/></clipPath></defs><g class="cls-2"><g id="Layer_1" data-name="Layer 1"><g class="cls-3"><rect class="cls-4" width="2000" height="2000"/><path class="cls-5" d="M688,1911.9l164.14-246.45a72.54,72.54,0,0,0-17.1-98.44L485.93,1307.44,262.47,1595.55Z"/><path class="cls-5" d="M486.36,1307.79c-11-9.2-26.69-12.88-29.47-7.8l-31.14,47.61,17.16,12.75Z"/><path class="cls-6" d="M1246.42,1295.5s-128.92,108.16-211.48,145.74c-56.73,25.83-178.77,41.91-219.87,94-55.89,70.79-191.36,249.41-191.36,249.41l-60.84-30.83L303,1622.13l-33.79-11.43S346,1474.83,454,1367.51h0l.09-.1c13.65-13.54,27-27.15,39.68-40.6,11.19-1.17,22.4-2.42,33.63-3.87q14.28-1.76,28-4.83c124-27.66,214.86-133.22,256.8-251.39q4.47-12.63,8.2-25.4c6.66-24.74,10.47-48.53,15.22-74.21,2.49-11.38,5.37-22.22,8.21-32.87l234-64.16,156,393.91Z"/><path class="cls-7" d="M1246.42,1295.51s-128.92,108.15-211.48,145.74c-56.74,25.83-178.77,41.91-219.88,94-55.88,70.78-191.35,249.4-191.35,249.4l-60.84-30.82c8.21-6.61,14.37-18,20.4-25.75q14.33-18.52,28.67-37l57.32-74.1q32.43-41.88,64.84-83.79c21.84-28.23,44.1-56.86,73-77.8,43.44-31.48,97.71-42.78,149.21-57.79A947.54,947.54,0,0,0,1233.94,1264Z"/><path class="cls-8" d="M1364.89,853.23c-34.47,37.66-117.22,101.65-117.22,101.65V808.4l51.23-45.66Z"/><path class="cls-8" d="M1384.33,968.78s.25,26.16-5.37,38.57c-13,28.82-137.94,113.8-137.94,113.8l-4.19-149.52Z"/><path class="cls-6" d="M1236.56,598.76s21.35-20.56,44.87-39.27c20.44-16.26,64.93-16.27,83.69,8.26s9.35,54.53-8.55,83.4C1339.32,679,1246.45,757,1246.45,757Z"/><path class="cls-8" d="M1360.76,1186.84c-19.52,36.76-87.92,69.34-113.62,95.58l-26.57-131.82Z"/><path class="cls-9" d="M791,372.06a73.57,73.57,0,0,1,20.38-50.95,46.3,46.3,0,0,1,3.38-3.34,73.87,73.87,0,0,1,50.37-19.84H1216a74.22,74.22,0,0,1,74.17,74.13v871.47A73.94,73.94,0,0,1,1270,1294.2a41,41,0,0,1-3.23,3.23,73.82,73.82,0,0,1-50.83,20.22H865.12A74.21,74.21,0,0,1,791,1243.53Zm425-75.79H865.12a74.53,74.53,0,0,0-23.92,3.88,75.86,75.86,0,0,0-51.89,71.9v871.48a75.89,75.89,0,0,0,75.81,75.78H1216a75.71,75.71,0,0,0,51.59-20.3v0a75.36,75.36,0,0,0,14.49-18.37l.07-.11a75.16,75.16,0,0,0,9-27,76.61,76.61,0,0,0,.68-10V372.05A75.86,75.86,0,0,0,1216,296.27Z"/><path class="cls-10" d="M1290.93,372.06v871.46a75,75,0,0,1-75,75H865.11a72.88,72.88,0,0,1-12.26-1,74.94,74.94,0,0,1-62.69-74V372.06a75,75,0,0,1,75-75H1216A75,75,0,0,1,1290.93,372.06Z"/><path class="cls-11" d="M1218.4,1305.34c35.5,0,64.38-28.37,64.38-63.24V372.54c0-34.87-28.88-63.25-64.38-63.25H862.07c-35.5,0-64.38,28.38-64.38,63.25V1242.1c0,34.87,28.88,63.24,64.38,63.24Z"/><path class="cls-12" d="M797.9,367.73c-.13,1.59-.21,3.19-.21,4.81V1242.1c0,34.87,28.88,63.24,64.38,63.24H1218.4c35.5,0,64.38-28.37,64.38-63.24V372.54c0-1.62-.09-3.22-.21-4.81Z"/><rect class="cls-13" x="956.68" y="325.85" width="191.15" height="19.82" rx="8.41"/><path class="cls-14" d="M1268.59,273.68h-.06a3.51,3.51,0,0,1-3.45-3.56l1-67.19a3.5,3.5,0,0,1,3.51-3.46h.05a3.5,3.5,0,0,1,3.46,3.56l-1,67.19A3.52,3.52,0,0,1,1268.59,273.68Z"/><path class="cls-14" d="M1303.48,287.22a3.51,3.51,0,0,1-2.44-6l48.22-46.8a3.51,3.51,0,0,1,4.89,5l-48.22,46.8A3.5,3.5,0,0,1,1303.48,287.22Z"/><path class="cls-14" d="M1385.78,322.47h-.06l-67.19-1a3.51,3.51,0,0,1,0-7h.06l67.19,1a3.51,3.51,0,0,1,0,7Z"/><path class="cls-6" d="M1283.64,739.92c-25.88,8.92-28.93,56.7-23.08,85,4.85,23.48,36,64.38,89,40.79,0,0,55.74-32.92,26.47-88C1355.14,738.29,1307.5,731.7,1283.64,739.92Z"/><path class="cls-15" d="M1301.87,757.56c30.44,16.4,44.93,53.13,40.05,74.17,0,0,24.14-12.22,15.35-40.76C1346.76,756.82,1301.87,757.56,1301.87,757.56Z"/><path class="cls-6" d="M1261.82,980.35c6.38,51.79,48.87,49.93,76.49,48.34,25-1.44,56.17-17.65,49.93-69.32-6.17-51-44.09-51.06-61.08-51.06C1259.7,908.31,1258,948.91,1261.82,980.35Z"/><path class="cls-15" d="M1359.41,949.17c6.39,16.66-10.83,44.35-20,43.11,4.33-31.46-3.2-50.75-35.25-67.1C1303.92,925.07,1347.25,917.43,1359.41,949.17Z"/><path class="cls-6" d="M1273.47,1091.18c-14,2.85-26.87,25.24-27.17,54.07-.36,35,26.65,56.91,61.08,65.62,32.66,8.26,53.55-15.43,59.48-39.75,7.24-29.75-11.16-59.61-33.63-67.78C1310.46,1095.06,1285.53,1088.72,1273.47,1091.18Z"/><path class="cls-15" d="M1299.36,1104.31c3.73-4.75,39.06,15.58,38.65,36.62s-20.86,27.06-26.1,23.6C1313.11,1154.46,1314.16,1130.72,1299.36,1104.31Z"/><path class="cls-16" d="M798.66,853.44c-1.5,5.57-3.23,11.23-5,16.79V580.68c53.14,25.18,45.89,131,43,158.67-3.16,30.56-32.73,63.82-33.42,67.5C801.6,815.53,803.81,834.29,798.66,853.44Z"/><path class="cls-16" d="M856.3,1317A74.9,74.9,0,0,1,793.65,1243V969.3c9.45,25.4,22.24,58,34,96.33C848.81,1134.34,866.72,1221.21,856.3,1317Z"/><path class="cls-6" d="M824,1371,669.6,1391.83,529.5,1376,454,1367.51l.09-.1c2.09-2.19,35.85-37.61,52.19-57.34,65.16-78.7,74.56-316.53,90.36-355.32,12.89-31.64,27.52-59.44,40.47-86.38,4.64-9.65,9.07-19.2,13.13-28.78,13.31-31.39,21.74-64.4,31.07-87.07,6.27-15.27,31.15-38.39,52.18-84.15,0-.1.09-.17.12-.26,18.41-40.28,17.43-89.21,35.72-92.55a11.75,11.75,0,0,1,3.76-.09c73,9.46,61.08,134.85,57.07,165.34s-34.46,62.9-35.26,66.56c-1.88,8.64-.18,27.45-5.85,46.45-7.87,26.35-20.94,54.24-21.09,66-.27,21.38,24.06,74.2,44.28,146.9C835,1148.47,852.5,1255.36,824,1371Z"/><path class="cls-15" d="M771.63,619.33c-5.14,29.9-20.78,52.17-34.93,49.74a11.87,11.87,0,0,1-3.08-1c18.41-40.27,17.43-89.19,35.72-92.54C773.45,586.48,774.56,602.31,771.63,619.33Z"/><path class="cls-7" d="M637.12,868.37c-2.75,16.54-10.31,39.4-15,58.17-7.48,30.18-18,105.65-24.28,177.48-2.71,30.94-6.62,87-13.29,117.3a656.75,656.75,0,0,1-29.15,96.79,624.27,624.27,0,0,1-26,57.92c-67.77,132.75-167.33,209.36-226.46,246.1l-43.69-14.78S346,1474.83,454,1367.51h0l.09-.1c2.09-2.19,35.85-37.61,52.19-57.34,65.16-78.7,74.56-316.53,90.36-355.32C609.54,923.11,624.17,895.31,637.12,868.37Z"/><path class="cls-17" d="M310.84,2406.15c275.55-401.21,497-723.7,501.53-730.42l-341.1-365c-25.58,31.25-447.68,559.38-876,1095.47Z"/><path class="cls-18" d="M658.93,1904.38l-434.64-323.1c1.05-1.27,231.55-280,232.59-281.29,379.41,282,361.19,262.49,372.6,289.32,12.56,29.38,4.48,53.48-12.86,78.37,0,0-95.5,143.32-95.5,143.32C721.07,1811.16,659,1904.25,658.93,1904.38Z"/><g class="cls-19"><path class="cls-20" d="M762.43,1611.77a45.29,45.29,0,1,0,9.33,63.37A45.28,45.28,0,0,0,762.43,1611.77Z"/></g><path class="cls-21" d="M771.18,1671.18a45.29,45.29,0,1,1-9.33-63.37A45.31,45.31,0,0,1,771.18,1671.18Z"/><path class="cls-22" d="M760.38,1663.15a31.84,31.84,0,1,1-6.56-44.55A31.83,31.83,0,0,1,760.38,1663.15Z"/><path class="cls-23" d="M747,1635.54a4.6,4.6,0,1,1-1-6.44A4.6,4.6,0,0,1,747,1635.54Z"/><path class="cls-23" d="M730.07,1658.26a4.6,4.6,0,1,1-1-6.44A4.6,4.6,0,0,1,730.07,1658.26Z"/><path class="cls-23" d="M743.44,1656.29a4.6,4.6,0,1,1,6.43-1A4.6,4.6,0,0,1,743.44,1656.29Z"/><path class="cls-23" d="M720.72,1639.4a4.6,4.6,0,1,1,6.44-.94A4.6,4.6,0,0,1,720.72,1639.4Z"/><polygon class="cls-9" points="-280.39 2406.15 319.63 1652.16 240.12 1593.05 -407.45 2406.15 -280.39 2406.15"/><polygon class="cls-24" points="309.76 2406.15 654.66 1903.49 585.36 1849.69 199.5 2406.15 309.76 2406.15"/><polygon class="cls-9" points="488.42 1323.43 270.95 1615.97 224.29 1581.28 240.42 1561.77 249.93 1550.26 265.25 1531.73 285.99 1506.69 296.6 1493.84 329.45 1454.1 368.94 1406.35 389.67 1381.3 431.95 1330.16 456.89 1299.99 488.42 1323.43"/><path class="cls-25" d="M658.94,1904.38l-41-30.48,211.56-284.59a72.71,72.71,0,0,1-6.41,68.64l-8.12,12.2-13.42,20.14-12.36,18.54-7.65,11.52-29.18,43.81-7.5,11.22-36.05,54.15-7.29,10.94L683,1868.22l-1.52,2.29Z"/><path class="cls-26" d="M1122,439.25H728.37c-34.28,0-62.33,21.22-62.33,47.16V553.5c0,25.93,28.05,47.15,62.33,47.15h327.51l68.69,34.07L1119,600.65h3c34.28,0,62.33-21.22,62.33-47.15V486.41C1184.31,460.47,1156.26,439.25,1122,439.25Z"/><path class="cls-27" d="M712.76,585h393.61c34.28,0,62.33-21.22,62.33-47.16V470.8c0-25.94-28-47.16-62.33-47.16H712.76c-34.28,0-62.33,21.22-62.33,47.16v67.08C650.43,563.82,678.48,585,712.76,585Z"/><path class="cls-28" d="M919.71,467.58h-122c-2.87,0-5.19-2.6-5.19-5.81h0c0-3.21,2.32-5.81,5.19-5.81h122c2.87,0,5.19,2.6,5.19,5.81h0C924.9,465,922.58,467.58,919.71,467.58Z"/><path class="cls-28" d="M1124.59,467.58H946.24c-2.86,0-5.19-2.6-5.19-5.81h0c0-3.21,2.33-5.81,5.19-5.81h178.35c2.86,0,5.19,2.6,5.19,5.81h0C1129.78,465,1127.45,467.58,1124.59,467.58Z"/><path class="cls-28" d="M880.25,543H797.71c-2.87,0-5.19-2.6-5.19-5.81h0c0-3.21,2.32-5.81,5.19-5.81h82.54c2.87,0,5.19,2.6,5.19,5.81h0C885.44,540.37,883.12,543,880.25,543Z"/><path class="cls-28" d="M967.33,543H907.92c-2.87,0-5.19-2.6-5.19-5.81h0c0-3.21,2.32-5.81,5.19-5.81h59.41c2.87,0,5.19,2.6,5.19,5.81h0C972.52,540.37,970.2,543,967.33,543Z"/><path class="cls-28" d="M1111.21,543H989.1c-2.86,0-5.19-2.6-5.19-5.81h0c0-3.21,2.33-5.81,5.19-5.81h122.11c2.87,0,5.19,2.6,5.19,5.81h0C1116.4,540.37,1114.08,543,1111.21,543Z"/><path class="cls-28" d="M1066.63,505.28H797.71c-2.87,0-5.19-2.61-5.19-5.81h0c0-3.21,2.32-5.81,5.19-5.81h268.92c2.87,0,5.19,2.6,5.19,5.81h0C1071.82,502.67,1069.5,505.28,1066.63,505.28Z"/><polygon class="cls-27" points="1034.68 582.27 1108.96 619.11 1102.89 582.27 1034.68 582.27"/><circle id="SVGID" class="cls-28" cx="716.12" cy="503.32" r="52.69" transform="translate(-146.16 653.79) rotate(-45)"/><circle class="cls-27" cx="716.8" cy="486.16" r="16.47" transform="translate(-133.82 649.25) rotate(-45)"/><path class="cls-27" d="M739.68,507c-.52-3.45-4.52-6.19-9.65-6.9a19.13,19.13,0,0,1-26.59-.13c-5.72.41-10.32,3.31-10.89,7L688,537h56.28Z"/><path class="cls-26" d="M1122,880.56H728.37c-34.28,0-62.33,21.22-62.33,47.16V994.8c0,25.94,28.05,47.16,62.33,47.16h328.54L1125.6,1076,1120,1042h2c34.28,0,62.33-21.22,62.33-47.16V927.72C1184.31,901.78,1156.26,880.56,1122,880.56Z"/><path class="cls-29" d="M712.76,1026.35h393.61c34.28,0,62.33-21.22,62.33-47.16V912.11c0-25.94-28-47.16-62.33-47.16H712.76c-34.28,0-62.33,21.22-62.33,47.16v67.08C650.43,1005.13,678.48,1026.35,712.76,1026.35Z"/><path class="cls-28" d="M919.71,908.89h-122c-2.87,0-5.19-2.61-5.19-5.81h0c0-3.21,2.32-5.81,5.19-5.81h122c2.87,0,5.19,2.6,5.19,5.81h0C924.9,906.28,922.58,908.89,919.71,908.89Z"/><path class="cls-28" d="M1124.59,908.89H946.24c-2.86,0-5.19-2.61-5.19-5.81h0c0-3.21,2.33-5.81,5.19-5.81h178.35c2.86,0,5.19,2.6,5.19,5.81h0C1129.78,906.28,1127.45,908.89,1124.59,908.89Z"/><path class="cls-28" d="M880.25,946.58H797.71c-2.87,0-5.19-2.6-5.19-5.81h0c0-3.21,2.32-5.81,5.19-5.81h82.54c2.87,0,5.19,2.6,5.19,5.81h0C885.44,944,883.12,946.58,880.25,946.58Z"/><path class="cls-28" d="M967.33,946.58H907.92c-2.87,0-5.19-2.6-5.19-5.81h0c0-3.21,2.32-5.81,5.19-5.81h59.41c2.87,0,5.19,2.6,5.19,5.81h0C972.52,944,970.2,946.58,967.33,946.58Z"/><path class="cls-28" d="M1111.21,946.58H989.1c-2.86,0-5.19-2.6-5.19-5.81h0c0-3.21,2.33-5.81,5.19-5.81h122.11c2.87,0,5.19,2.6,5.19,5.81h0C1116.4,944,1114.08,946.58,1111.21,946.58Z"/><path class="cls-28" d="M975.74,984.28h-178c-2.87,0-5.19-2.6-5.19-5.81h0c0-3.21,2.32-5.81,5.19-5.81h178c2.87,0,5.19,2.6,5.19,5.81h0C980.93,981.68,978.61,984.28,975.74,984.28Z"/><polygon class="cls-29" points="1035.71 1023.58 1109.99 1060.41 1103.92 1023.58 1035.71 1023.58"/><circle id="SVGID-2" data-name="SVGID" class="cls-28" cx="715.79" cy="944.59" r="52.69" transform="translate(-454.79 1129.97) rotate(-61.84)"/><circle class="cls-29" cx="716.47" cy="927.43" r="16.47" transform="translate(-445.94 778.26) rotate(-45)"/><path class="cls-29" d="M739.35,948.24c-.52-3.45-4.52-6.19-9.65-6.9a19.13,19.13,0,0,1-26.59-.13c-5.72.41-10.33,3.31-10.89,7l-4.58,30h56.29Z"/><path class="cls-26" d="M1347.66,1096.88H954.05c-34.28,0-62.33,21.22-62.33,47.16v67.08c0,25.94,28,47.16,62.33,47.16h4.37l-5.61,34.06,68.69-34.06h326.16c34.28,0,62.33-21.22,62.33-47.16V1144C1410,1118.1,1381.94,1096.88,1347.66,1096.88Z"/><path class="cls-30" d="M969.66,1242.67h393.61c34.29,0,62.33-21.22,62.33-47.16v-67.08c0-25.94-28-47.16-62.33-47.16H969.66c-34.28,0-62.33,21.22-62.33,47.16v67.08C907.33,1221.45,935.38,1242.67,969.66,1242.67Z"/><path class="cls-28" d="M1334.22,1125.2H1054.61c-2.86,0-5.19-2.6-5.19-5.8h0c0-3.21,2.33-5.81,5.19-5.81h279.61c2.87,0,5.19,2.6,5.19,5.81h0C1339.41,1122.6,1337.09,1125.2,1334.22,1125.2Z"/><path class="cls-28" d="M1381.49,1125.2H1362c-2.86,0-5.19-2.6-5.19-5.8h0c0-3.21,2.33-5.81,5.19-5.81h19.51c2.87,0,5.19,2.6,5.19,5.81h0C1386.68,1122.6,1384.36,1125.2,1381.49,1125.2Z"/><path class="cls-28" d="M1137.16,1200.6h-82.55c-2.86,0-5.19-2.6-5.19-5.81h0c0-3.21,2.33-5.81,5.19-5.81h82.55c2.86,0,5.19,2.6,5.19,5.81h0C1142.35,1198,1140,1200.6,1137.16,1200.6Z"/><path class="cls-28" d="M1313.23,1200.6H1164.82c-2.86,0-5.19-2.6-5.19-5.81h0c0-3.21,2.33-5.81,5.19-5.81h148.41c2.87,0,5.2,2.6,5.2,5.81h0C1318.43,1198,1316.1,1200.6,1313.23,1200.6Z"/><path class="cls-28" d="M1368.11,1200.6H1335c-2.86,0-5.19-2.6-5.19-5.81h0c0-3.21,2.33-5.81,5.19-5.81h33.11c2.87,0,5.19,2.6,5.19,5.81h0C1373.3,1198,1371,1200.6,1368.11,1200.6Z"/><path class="cls-28" d="M1321.64,1162.9h-267c-2.86,0-5.19-2.6-5.19-5.81h0c0-3.21,2.33-5.81,5.19-5.81h267c2.87,0,5.19,2.6,5.19,5.81h0C1326.83,1160.3,1324.51,1162.9,1321.64,1162.9Z"/><polygon class="cls-30" points="1042.7 1239.9 968.42 1276.73 974.49 1239.9 1042.7 1239.9"/><circle id="SVGID-3" data-name="SVGID" class="cls-28" cx="973.02" cy="1160.95" r="52.69"/><circle class="cls-30" cx="973.71" cy="1143.79" r="16.47" transform="translate(-511.16 1370.75) rotate(-58.28)"/><path class="cls-30" d="M996.59,1164.6c-.53-3.45-4.52-6.2-9.66-6.9a19.13,19.13,0,0,1-26.59-.13c-5.72.4-10.32,3.3-10.89,7l-4.57,30h56.28Z"/><path class="cls-26" d="M1343.06,658.34H949.45c-34.29,0-62.33,21.22-62.33,47.15v67.09c0,25.93,28,47.16,62.33,47.16h8.6l-5.24,31.85,64.24-31.85h326c34.28,0,62.33-21.22,62.33-47.16V705.49C1405.39,679.56,1377.34,658.34,1343.06,658.34Z"/><path class="cls-31" d="M965.06,804.12h393.61C1393,804.12,1421,782.9,1421,757V689.88c0-25.93-28-47.15-62.33-47.15H965.06c-34.28,0-62.33,21.22-62.33,47.15V757C902.73,782.9,930.78,804.12,965.06,804.12Z"/><path class="cls-28" d="M1172,724.36H1050c-2.87,0-5.19-2.6-5.19-5.81h0c0-3.21,2.32-5.81,5.19-5.81h122c2.87,0,5.19,2.6,5.19,5.81h0C1177.2,721.76,1174.88,724.36,1172,724.36Z"/><path class="cls-28" d="M1376.89,724.36h-89.35c-2.87,0-5.19-2.6-5.19-5.81h0c0-3.21,2.32-5.81,5.19-5.81h89.35c2.87,0,5.19,2.6,5.19,5.81h0C1382.08,721.76,1379.76,724.36,1376.89,724.36Z"/><path class="cls-28" d="M1262.53,724.36h-64c-2.86,0-5.19-2.6-5.19-5.81h0c0-3.21,2.33-5.81,5.19-5.81h64c2.87,0,5.19,2.6,5.19,5.81h0C1267.72,721.76,1265.4,724.36,1262.53,724.36Z"/><path class="cls-28" d="M1132.55,686.66H1050c-2.87,0-5.19-2.6-5.19-5.81h0c0-3.21,2.32-5.81,5.19-5.81h82.54c2.87,0,5.19,2.6,5.19,5.81h0C1137.74,684.06,1135.42,686.66,1132.55,686.66Z"/><path class="cls-28" d="M1308.63,686.66H1160.22c-2.87,0-5.19-2.6-5.19-5.81h0c0-3.21,2.32-5.81,5.19-5.81h148.41c2.87,0,5.19,2.6,5.19,5.81h0C1313.82,684.06,1311.5,686.66,1308.63,686.66Z"/><path class="cls-28" d="M1363.51,686.66H1330.4c-2.87,0-5.19-2.6-5.19-5.81h0c0-3.21,2.32-5.81,5.19-5.81h33.11c2.87,0,5.19,2.6,5.19,5.81h0C1368.7,684.06,1366.38,686.66,1363.51,686.66Z"/><path class="cls-28" d="M1317,762.06H1050c-2.87,0-5.19-2.61-5.19-5.81h0c0-3.21,2.32-5.81,5.19-5.81h267c2.87,0,5.19,2.6,5.19,5.81h0C1322.23,759.45,1319.91,762.06,1317,762.06Z"/><polygon class="cls-31" points="1042.7 799.15 968.42 835.98 974.49 799.15 1042.7 799.15"/><circle id="SVGID-4" data-name="SVGID" class="cls-28" cx="968.42" cy="722.4" r="52.69" transform="translate(-227.17 896.36) rotate(-45)"/><circle class="cls-31" cx="969.1" cy="705.24" r="16.47" transform="translate(-227.46 774.25) rotate(-39.35)"/><path class="cls-31" d="M992,726.06c-.53-3.46-4.53-6.2-9.66-6.91a19.13,19.13,0,0,1-26.59-.13c-5.72.41-10.32,3.31-10.89,7l-4.57,30h56.28Z"/><path class="cls-5" d="M1342.11,2421.37l-69.5-287.85a72.54,72.54,0,0,1,49.88-86.57l417.06-123.84,110.9,347.34Z"/><path class="cls-5" d="M1739,1923.29c13.49-4.86,29.49-2.92,30.36,2.8l12.88,55.41-20.49,6.08Z"/><path class="cls-32" d="M1650.38,1561.94c-18.85-71.1-67.39-105.93-98-107.16-20.11-.8-35,19.93-41.64,65.22.8-67.89-20.93-96.25-76-96.64-28.92-.21-43,66.84-45.2,94.64-3.5-41-22.17-108.57-86.07-115.56-48.27-5.28-49.6,22.9-55.44,95.79-4-28.24-14.62-89.21-33.86-154.29-31.56-106.74-71.69-224.86-71.88-225.34-8.56-21.11-27.73-38.84-50.14-34.83-18.55,3.32-32,20.65-36.63,38.92s-2.08,37.48.47,56.14c11.84,86.78,46,277.93,58,364.68,13.59,98.2,8.43,124.39,15.18,171.74,5.34,37.52,12.92,79.62,34.17,111,19.81,29.24,48.73,45.41,76.61,67.08a467.46,467.46,0,0,1,100.93,108.4c4.33,6.46,21,51.9,43.29,115.7l412.73,21.89c-36.44-113-66.74-206.87-70.19-217.12C1665.24,1739.66,1667,1624.51,1650.38,1561.94Z"/><path class="cls-33" d="M1131.13,1122.74c-2.58-13.5-10.12-35-36.57-29.69-15.86,3.2-25.48,13.6-25.11,28.46.2,8,1.92,15.87,3.16,23.77,1.15,7.37,5.86,11.28,13.32,10.42,12.29-1.41,24.55-3.17,36.77-5.1C1133.43,1148.91,1135.06,1143.38,1131.13,1122.74Z"/><path class="cls-32" d="M1366,2066.16c-14.92-36.9-35.92-84.5-72.86-111-64.7-46.38-178.16-113.32-221.33-160.43-52.73-57.55-94.77-120.84-122.55-164.46-8.71-13.7-16-25.46-21.83-34.49-3.4-5.31-25.46-41.24-28.34-60.06-.49-3.16-.43-5.83.34-7.81,3.91-10,38-16.88,48.67-16.2,48.31,3.06,134.83,79.49,151.21,139.8,18.4,7.28,22.61,29.45,26.34,27.78,13-5.84,29.31-19.83,43.33-20.5,15-.72,30.15.85,44.93,3.62,92.06,17.28,174.22,80.88,214,165.69,15.83,33.74,25.29,71.39,20.66,108.38C1440.83,1998.49,1427.32,2054.35,1366,2066.16Z"/><path class="cls-34" d="M949.25,1630.3c-8.71-13.7-16-25.46-21.83-34.49-3.4-5.31-25.46-41.24-28.34-60.06,12.37-2.38,27.53,4.56,37.4,11.84,10.07,7.42,37.77,38.42,35.94,59.29C971.54,1617,960.45,1625.38,949.25,1630.3Z"/><path class="cls-17" d="M1526.58,3015.11c-121-471.45-218.18-850.39-220.11-858.25l445.74-225.68c13.29,38.14,228.29,679.13,446.38,1329.72Z"/><path class="cls-18" d="M1372,2424.3l519.19-154.13-121.82-344.08c-453.2,134.55-429.38,122.44-449.31,143.72-21.88,23.29-22.58,48.69-14.84,78,0,0,40.46,167.41,40.46,167.41C1345.69,2315.41,1372,2424.14,1372,2424.3Z"/><polygon class="cls-9" points="1731.72 1937.27 1835.46 2286.71 1891.2 2270.16 1882.76 2246.3 1877.78 2232.22 1869.75 2209.56 1858.89 2178.92 1853.33 2163.2 1836.13 2114.6 1815.45 2056.19 1804.58 2025.54 1782.44 1962.99 1769.39 1926.09 1731.72 1937.27"/></g></g></g></svg>