<svg xmlns="http://www.w3.org/2000/svg" viewBox="0 0 1042.91 1042.91"><defs><style>.cls-1{fill:#e9edf3;}.cls-2{fill:#0084ff;}</style></defs><g id="레이어_2" data-name="레이어 2"><g id="레이어_1-2" data-name="레이어 1"><circle class="cls-1" cx="521.46" cy="521.46" r="521.46"/><path class="cls-2" d="M824.41,242.54a27.41,27.41,0,0,0-24-24c-46.36-5.52-87.89,6-111.08,30.71l-71.36,76.18h0l0,0-25.37,27.08-58.88-4.14a13.88,13.88,0,0,0,.66-4.21,13.57,13.57,0,0,0-4-9.62L508.48,312.7a13.6,13.6,0,0,0-19.24,0l-27.63,27.63-25.87-3.55a13.46,13.46,0,0,0-3.71-6.92L410.19,308a14,14,0,0,0-19.25,0L371,327.92,265.37,313.44a13.61,13.61,0,0,0-11.47,3.86l-32.77,32.77a13.61,13.61,0,0,0,3.94,22l112.6,51.71.23.23a13.52,13.52,0,0,0,9,4l126.4,56.39-123,143.69-77.57.44a13.6,13.6,0,0,0-9.54,4l-29.81,29.81a13.61,13.61,0,0,0,3.22,21.64l79.81,42.52L359,806.25a13.61,13.61,0,0,0,21.63,3.22l29.81-29.81a13.57,13.57,0,0,0,4-9.55l.44-77.56,143.69-123,57,127.84a13.67,13.67,0,0,0,3.54,7.8l51.72,112.61a13.62,13.62,0,0,0,10,7.72,14,14,0,0,0,2.41.21,13.61,13.61,0,0,0,9.62-4L725.61,789a13.63,13.63,0,0,0,3.87-11.47L715,671.87,734.9,652a13.62,13.62,0,0,0,0-19.24l-21.25-21.25a13.55,13.55,0,0,0-7.45-3.81l-3.61-26.37,27.63-27.62a13.62,13.62,0,0,0,0-19.25L709,513.19A13.59,13.59,0,0,0,694.65,510l-4.24-59.65,103.3-96.78C818.45,330.43,829.93,288.91,824.41,242.54ZM353.78,401.22c-.4-.18-.82-.34-1.23-.48s-.86-.48-1.31-.69l-97-44.56,14.16-14.17L374,355.8a13.6,13.6,0,0,0,11.47-3.86l15.06-15.05,2.71,2.71a13.61,13.61,0,0,0,9.18,21.46l52.15,7.15a13.62,13.62,0,0,0,11.47-3.86l22.78-22.78,2.59,2.59-6.2,6.2a13.61,13.61,0,0,0,8.67,23.2L570,378.21l-77.18,85ZM692.7,548.71l6.65-6.65,2,2-22.78,22.78a13.58,13.58,0,0,0-3.86,11.46L682,631.5a13.61,13.61,0,0,0,22,8.79l2.06,2.06-15,15.06a13.61,13.61,0,0,0-3.87,11.46l14.48,105.68-14.16,14.16-44.56-97c-.15-.32-.3-.62-.47-.92s-.21-.54-.33-.81L579.5,549.73l85.22-76.81,4.78,67.13a13.61,13.61,0,0,0,23.2,8.66Zm-3.38-134.6L535.58,552.67l.39.43L392.45,675.92a13.58,13.58,0,0,0-4.76,10.26l-.45,78.19-12.86,12.86L338.55,710a13.66,13.66,0,0,0-5.61-5.61l-67.25-35.82,12.86-12.87,78.19-.44A13.6,13.6,0,0,0,367,650.47L496.34,499.33l.25.23L638.1,343.68h0l71.07-75.86c17.28-18.46,50.16-26.78,88.21-22.06,4.51,37.81-3.83,70.7-22.28,88Z"/></g></g></svg>