<svg xmlns="http://www.w3.org/2000/svg" viewBox="0 0 1100.51 1337.49"><defs><style>.cls-1{fill:#3487f7;}.cls-2{fill:#e9edf3;}.cls-3{font-size:12px;font-family:AdobeMyungjoStd-Medium-KSCpc-EUC-H, Adobe Myungjo Std;}</style></defs><g id="레이어_2" data-name="레이어 2"><g id="레이어_1-2" data-name="레이어 1"><circle class="cls-1" cx="579.05" cy="521.46" r="521.46"/><path class="cls-2" d="M824.61,527.36H723.93v-31.8a22,22,0,0,0-22-22H622.66a22,22,0,0,0-22,22v31.8h-28V399.87A37.77,37.77,0,0,0,535,362.14H494.9V260.48A21.9,21.9,0,0,0,473,238.6H395.46a21.9,21.9,0,0,0-21.88,21.88V362.14H333.49a37.76,37.76,0,0,0-37.72,37.73v324.6a37.73,37.73,0,0,0,36.29,37.65l2,31.71a11.16,11.16,0,0,0,11.14,10.48H371.5a11.16,11.16,0,0,0,11.14-10.48l1.95-31.63h77.69v4.38A37.77,37.77,0,0,0,500,804.31h324.6a37.77,37.77,0,0,0,37.73-37.73V565.08A37.77,37.77,0,0,0,824.61,527.36ZM623,495.9h78.6v30.16H623Zm-227.11-235h76.68V362.14H395.9ZM361,782h-5.36l-1.22-19.79h7.8Zm171.24,0H500a15.43,15.43,0,0,1-15.41-15.41V565.08A15.43,15.43,0,0,1,500,549.68h32.24Zm18.14-254.63H503.71V434.21a11.16,11.16,0,1,0-22.32,0v98.1a37.74,37.74,0,0,0-19.11,32.77V739.87H333.49a15.42,15.42,0,0,1-15.4-15.4V399.87a15.42,15.42,0,0,1,15.4-15.41H535a15.42,15.42,0,0,1,15.4,15.41ZM768.09,782H554.58V549.68H768.09ZM840,766.58A15.42,15.42,0,0,1,824.61,782H790.42V549.68h34.19a15.42,15.42,0,0,1,15.4,15.4Z"/><path class="cls-2" d="M376.85,423a11.17,11.17,0,0,0-11.16,11.17V690.13a11.17,11.17,0,0,0,22.33,0V434.21A11.17,11.17,0,0,0,376.85,423Z"/><path class="cls-2" d="M434.24,423a11.17,11.17,0,0,0-11.16,11.17V690.13a11.16,11.16,0,1,0,22.32,0V434.21A11.16,11.16,0,0,0,434.24,423Z"/><text class="cls-3" transform="translate(0 1330.19)">국가는 </text></g></g></svg>