<svg xmlns="http://www.w3.org/2000/svg" viewBox="0 0 1042.91 1042.91"><defs><style>.cls-1{fill:#3487f7;}.cls-2{fill:#e9edf3;}</style></defs><g id="레이어_2" data-name="레이어 2"><g id="레이어_1-2" data-name="레이어 1"><circle class="cls-1" cx="521.46" cy="521.46" r="521.46"/><path class="cls-2" d="M826.23,541.89l-74.49-67.5a13.2,13.2,0,0,0-9.43-3.53l-174.65,3.68V418l175.23-3.69a13.61,13.61,0,0,0,13.32-13.61V284.28a13.62,13.62,0,0,0-13.32-13.61L567.66,267V230.3a46.2,46.2,0,1,0-92.4,0V265L300.6,261.36h-.28a13.6,13.6,0,0,0-9.14,3.53l-74.49,67.5a13.61,13.61,0,0,0,0,20.17l74.49,67.51a13.59,13.59,0,0,0,9.14,3.52h.28l174.66-3.68v56.58L300,480.18a13.6,13.6,0,0,0-13.32,13.6V610.17A13.61,13.61,0,0,0,300,623.78l175.23,3.69V858.81h27.22V628l38,.8v230h27.22V629.41l174.65,3.68h.29a13.63,13.63,0,0,0,9.14-3.52l74.49-67.51a13.61,13.61,0,0,0,0-20.17ZM502.48,230.3a19,19,0,1,1,38,0v36.11l-38-.8Zm-197,166L246.1,342.48l59.34-53.79,169.82,3.58v.16h7.81L729,297.61v89.74Zm235,22.28v56.57l-38,.8V419.34Zm197,187.22-423.54-8.91V507.11l423.54-8.92L796.82,552Z"/></g></g></svg>