<svg xmlns="http://www.w3.org/2000/svg" viewBox="0 0 1042.91 1042.91"><defs><style>.cls-1{fill:#e9edf3;}.cls-2{fill:#0085ff;}</style></defs><g id="레이어_2" data-name="레이어 2"><g id="레이어_1-2" data-name="레이어 1"><circle class="cls-1" cx="521.46" cy="521.46" r="521.46"/><path class="cls-2" d="M860.42,816.44,737.93,531a13.62,13.62,0,0,0-12.51-8.25H618.31c29.39-50,55.12-109.76,55.12-165.58,0-82.55-67.16-149.7-149.7-149.7S374,274.61,374,357.16c0,55.82,25.73,115.56,55.12,165.58H322a13.62,13.62,0,0,0-12.44,8.08l-127,285.45A13.6,13.6,0,0,0,195,835.41h20.35c.55,0,1.75.05,3.55.05,1.13,0,2.5,0,4.09-.05H847.91a13.61,13.61,0,0,0,12.51-19ZM401.24,357.16a122.49,122.49,0,0,1,245,0c0,97.56-91.58,214.66-122.48,251.41C492.82,571.82,401.24,454.72,401.24,357.16ZM343,808.19l-8.73-22.84a357.65,357.65,0,0,1-45.69,14l2.08,8.85H241.59l-.1-1.11c-8.05.75-14.46,1-18.85,1.11H216L330.87,550H446.06a751,751,0,0,0,67.63,88.58,13.6,13.6,0,0,0,20.07,0A751,751,0,0,0,601.39,550H716.46l33.25,77.51-5.73-.21-.82,27.21c6,.18,12.2.44,18.46.74l65.64,153Z"/><path class="cls-2" d="M588.75,357.16a65,65,0,1,0-65,65A65.1,65.1,0,0,0,588.75,357.16Zm-102.83,0A37.81,37.81,0,1,1,523.73,395,37.84,37.84,0,0,1,485.92,357.16Z"/><path class="cls-2" d="M642.71,630.65l3,27.05c15.14-1.69,31.42-2.8,48.4-3.31l-.82-27.21C675.6,627.71,658.57,628.88,642.71,630.65Z"/><path class="cls-2" d="M377.54,765.26l13.19,23.81a351.26,351.26,0,0,0,43.19-28.25l-16.55-21.61A324.7,324.7,0,0,1,377.54,765.26Z"/><path class="cls-2" d="M454.43,707.27,472.06,728a291.9,291.9,0,0,1,38.36-27.83l-14.1-23.29A319.72,319.72,0,0,0,454.43,707.27Z"/><path class="cls-2" d="M542.91,654l9.87,25.36a323.4,323.4,0,0,1,45.52-13.78l-6-26.55A350.13,350.13,0,0,0,542.91,654Z"/></g></g></svg>